<?xml version="1.0" encoding="utf-8"?>
<!-- Generator: Adobe Illustrator 27.5.0, SVG Export Plug-In . SVG Version: 6.00 Build 0)  -->
<svg version="1.1" xmlns="http://www.w3.org/2000/svg" xmlns:xlink="http://www.w3.org/1999/xlink" x="0px" y="0px"
	 viewBox="0 0 1200 1200" style="enable-background:new 0 0 1200 1200;" xml:space="preserve">
<g id="Background">
	<rect style="fill:#FDF7EC;" width="1200" height="1200"/>
</g>
<g id="Graphic_Elements">
	<g>
		<g>
			<g>
				<g>
					<g>
						<g>
							<g>
								<g>
									<circle style="fill:#836420;" cx="358.197" cy="347.023" r="193.479"/>
								</g>
							</g>
						</g>
					</g>
				</g>
			</g>
			<g>
				<g>
					<g>
						<g>
							<g>
								<g>
									<g>
										<path style="fill:#3A222B;" d="M235.499,456.096l-32.754,3.06c-2.351,0.22-4.539-1.223-5.264-3.471l-22.325-69.262
											c-0.989-3.068,1.118-6.262,4.327-6.562l32.754-3.06c2.351-0.22,4.539,1.223,5.264,3.471l22.325,69.262
											C240.815,452.602,238.708,455.796,235.499,456.096z"/>
									</g>
								</g>
							</g>
						</g>
					</g>
				</g>
				<g>
					<g>
						<g>
							<g>
								<g>
									<g>
										<g>
											<path style="fill:#FFFFFF;" d="M184.135,386.261c0,1.131-0.916,2.047-2.047,2.047c-1.13,0-2.047-0.916-2.047-2.047
												s0.917-2.047,2.047-2.047C183.218,384.214,184.135,385.13,184.135,386.261z"/>
										</g>
									</g>
								</g>
							</g>
						</g>
					</g>
				</g>
				<path style="fill:#F0A76E;" d="M299.284,474.069l-39.665-19.529l-22.888,33.668c-13.495-20.911-19.197-33.668-19.197-33.668
					l3.974-20.479c0.912-4.702-2.32-9.202-7.067-9.839l-18.076-4.971l17.724-12.351c2.147-1.496,3.001-4.26,2.073-6.706
					c-1.306-3.443-5.482-4.766-8.532-2.703l-22.626,16.271c-1.83,1.316-2.915,3.433-2.915,5.687v9.158
					c4.088,27.25,18.869,34.563,18.869,34.563s7.228,28.492,9.31,44.963c1.823,14.418,14.107,42.244,24.071,45.871
					c5.919,2.154,17.012-1.66,22.35-10.726L299.284,474.069z"/>
				<g>
					<g>
						<g>
							<g>
								<g>
									<g>
										<g>
											<path style="fill:#F9EDB5;" d="M288.23,493.119c-0.822,20.689-1.657,41.73-2.432,61.228h152.822l-0.991-39.406
												l3.513-52.68l17.505,21.659c0.762,0.943,2.107,1.169,3.136,0.527l56.022-34.943c1.159-0.723,1.481-2.266,0.709-3.392
												l-40.326-58.843c-6.222-9.08-15.166-15.95-25.544-19.619c-5.564-1.968-11.424-2.974-17.328-2.974h-46.136l-60.497,2.715
												l-16.751,4.354c-15.638,5.243-28.711,16.213-36.588,30.704l-26.577,48.887c-0.408,0.751-0.119,1.69,0.64,2.081
												l40.138,20.68C288.975,480.251,288.492,486.546,288.23,493.119z"/>
										</g>
									</g>
								</g>
							</g>
						</g>
					</g>
					<path style="fill:#2F7346;" d="M447.067,366.062c-2.768-0.643-5.582-1.074-8.419-1.268c-0.201-0.013-0.402-0.028-0.604-0.039
						c-0.296-0.017-0.592-0.03-0.888-0.041c-0.612-0.022-1.224-0.039-1.837-0.039h-12.223c-17.258,0-18.166,69.006-18.166,69.006
						l-93.564-3.843c0,0,0-9.723,4.14-27.538c3.723-16.021,13.181-34.91,13.181-34.91l-8.782,2.283
						c-2.538,4.309-4.823,8.234-6.399,11.078c-8.249,14.878-21.249,45.968-23.957,93.346c-0.121,2.126-0.327,4.41-0.566,6.64
						c-0.317,4.039-0.584,8.148-0.752,12.381c-0.211,5.309-0.423,10.641-0.634,15.964c0,0.003,0,0.007,0,0.011
						c-0.129,3.247-0.257,6.479-0.386,9.705c-0.203,5.122-0.406,10.216-0.606,15.256c-0.165,4.16-0.329,8.295-0.491,12.362
						c-0.01,0.243-0.019,0.484-0.029,0.725c-0.097,2.426-0.191,4.822-0.286,7.205h152.822l-0.991-39.406l3.513-52.68
						c0,0-8.207-9.54-8.509-18.512C432.135,428.979,428.045,370.949,447.067,366.062z"/>
				</g>
				<g>
					<g>
						<g>
							<g>
								<g>
									<g>
										<path style="fill:#F0A76E;" d="M470.952,554.347h48.868l14.087-14.783c7.582-7.956,9.685-19.668,5.346-29.765
											l-27.806-56.328l-39.95,24.918l27.525,35.999L470.952,554.347z"/>
									</g>
								</g>
							</g>
						</g>
					</g>
				</g>
				<g>
					<g>
						<path style="fill:#CDAB5D;" d="M405.092,240.294c-0.402-2.802-1.033-5.609-1.912-8.404
							c-9.773-31.093-46.008-48.913-80.933-39.802c-19.18,5.004-33.974,17.09-41.798,32.12
							c-28.633,4.406-48.346,15.194-50.249,30.013c-3.114,24.25,42.639,50.109,102.191,57.757
							c59.553,7.648,110.355-5.811,113.47-30.061C447.759,267.146,431.528,251.779,405.092,240.294z"/>
						<g>
							<path style="fill:#F0A76E;" d="M387.321,338.733l-0.357-19.445c1.08-3.805,1.866-7.688,2.423-11.527
								c0.72,0.289,1.475,0.443,2.253,0.443c5.018,0,9.086-6.393,9.086-14.279s-4.068-14.279-9.086-14.279
								c-0.488,0-0.967,0.062-1.434,0.179c-0.497-6.967-1.308-11.485-1.308-11.485c-0.478-2.77-1.267-5.412-2.252-7.955
								c-14.2-6.309-43.092-15.732-75.678-6.978c-9.045,2.43-15.223,4.161-19.547,5.882c-3.739,8.067-5.101,17.171-3.498,26.448
								c0,0,9.135,65.935,51.187,69.404c0.044,4.108-0.222,7.585-1.336,9.536c-0.106,0.186-9.087,2.715-9.087,2.715
								s-6.518,44.984,34.238,44.984c40.757,0,33.49-47.699,33.49-47.699S386.763,354.356,387.321,338.733z"/>
							<g>
								<g>
									<g>
										<g>
											<g>
												<g>
													<g>
														<path style="fill:#3A222B;" d="M390.788,299.771c-0.322,0.056-0.664-0.004-0.956-0.187
															c-0.533-0.331-0.774-0.979-0.585-1.577l3.581-11.327c0.227-0.721,0.999-1.122,1.72-0.895
															c0.723,0.228,1.122,0.999,0.895,1.72l-1.96,6.197l2.091-2.009c0.549-0.527,1.415-0.508,1.939,0.037
															c0.525,0.547,0.508,1.414-0.038,1.939l-5.97,5.738C391.301,299.604,391.05,299.726,390.788,299.771z"/>
													</g>
												</g>
											</g>
										</g>
									</g>
								</g>
							</g>
							<g>
								<g>
									<g>
										<g>
											<g>
												<g>
													<g>
														<path style="fill:#3A222B;" d="M315.407,304.351c0.493,2.852-0.917,5.477-3.149,5.863s-4.441-1.615-4.934-4.467
															c-0.492-2.852,0.917-5.477,3.149-5.862C312.705,299.499,314.914,301.499,315.407,304.351z"/>
													</g>
												</g>
											</g>
										</g>
									</g>
								</g>
							</g>
							<g>
								<g>
									<g>
										<g>
											<g>
												<g>
													<g>
														<path style="fill:#3A222B;" d="M352.984,295.796c0.493,2.852-0.917,5.477-3.149,5.863
															c-2.232,0.385-4.441-1.615-4.933-4.467c-0.493-2.852,0.917-5.477,3.149-5.863
															C350.283,290.944,352.491,292.944,352.984,295.796z"/>
													</g>
												</g>
											</g>
										</g>
									</g>
								</g>
							</g>
							<g>
								<g>
									<g>
										<g>
											<g>
												<g>
													<g>
														<path style="fill:#3A222B;" d="M333.465,315.092c-0.046-0.022-0.092-0.047-0.136-0.075
															c-2.577-1.618-3.826-3.394-3.711-5.277c0.173-2.833,3.375-4.414,3.741-4.584c0.682-0.322,1.494-0.033,1.818,0.655
															c0.324,0.683,0.031,1.499-0.65,1.825c-0.684,0.326-2.116,1.312-2.172,2.275c-0.046,0.781,0.819,1.771,2.432,2.782
															c0.641,0.403,0.834,1.249,0.433,1.891C334.844,315.181,334.086,315.39,333.465,315.092z"/>
													</g>
												</g>
											</g>
										</g>
									</g>
								</g>
							</g>
							<g>
								<g>
									<g>
										<g>
											<g>
												<g>
													<g>
														<path style="fill:#3A222B;" d="M298.04,294.872c-0.43,0.074-0.889-0.057-1.216-0.393
															c-0.528-0.542-0.518-1.411,0.024-1.939c0.327-0.317,8.103-7.743,17.314-3.96c0.701,0.288,1.035,1.089,0.747,1.789
															c-0.287,0.699-1.083,1.033-1.79,0.747c-7.569-3.106-14.291,3.321-14.356,3.387
															C298.557,294.704,298.304,294.826,298.04,294.872z"/>
													</g>
												</g>
											</g>
										</g>
									</g>
								</g>
							</g>
							<g>
								<g>
									<g>
										<g>
											<g>
												<g>
													<g>
														<path style="fill:#3A222B;" d="M355.594,280.638c-0.295,0.105-0.629,0.11-0.944-0.009
															c-0.359-0.137-8.838-3.243-14.524,2.594c-0.53,0.541-1.396,0.554-1.939,0.025c-0.542-0.529-0.554-1.396-0.025-1.938
															c6.951-7.13,17.035-3.406,17.462-3.244c0.706,0.27,1.059,1.06,0.791,1.768
															C356.268,280.224,355.96,280.508,355.594,280.638z"/>
													</g>
												</g>
											</g>
										</g>
									</g>
								</g>
							</g>
							<g>
								<g>
									<g>
										<g>
											<g>
												<g>
													<g>
														<path style="fill:#3A222B;" d="M336.974,334.296c-6.963,0-12.265-4.061-12.341-4.119
															c-0.575-0.45-0.676-1.279-0.227-1.854c0.449-0.575,1.279-0.681,1.855-0.233c0.387,0.297,9.539,7.252,19.04,0.995
															c9.462-6.234,8.638-11.99,8.598-12.233c-0.117-0.715,0.361-1.397,1.073-1.525c0.721-0.134,1.394,0.336,1.529,1.047
															c0.059,0.31,1.308,7.64-9.745,14.92C343.379,333.519,340.018,334.296,336.974,334.296z"/>
													</g>
												</g>
											</g>
										</g>
									</g>
								</g>
							</g>
						</g>
						<g>
							<g>
								<g>
									<g>
										<g>
											<g>
												<g>
													<path style="fill:#3A222B;" d="M280.63,273.268c-0.218,6.423,3.005,18.398,9.685,24.059
														c-1.739-6.911-2.392-11.59-2.392-11.59c-1.599-9.259-0.244-18.346,3.479-26.4l-0.1,0.001
														c-3.882,1.558-6.256,3.113-7.809,5.177C281.4,267.297,280.79,270.898,280.63,273.268z"/>
												</g>
											</g>
										</g>
									</g>
								</g>
							</g>
						</g>
						<g>
							<g>
								<g>
									<g>
										<g>
											<g>
												<g>
													<path style="fill:#3A222B;" d="M394.621,237.408c-0.227,0.039-0.466,0.023-0.697-0.061
														c-15.127-5.445-32.564-9.536-50.427-11.831c-19.172-2.459-38.245-2.793-55.159-0.96
														c-0.751,0.081-1.428-0.461-1.509-1.212c-0.083-0.748,0.396-1.444,1.212-1.509c17.127-1.857,36.423-1.521,55.806,0.967
														c18.054,2.319,35.693,6.459,51.005,11.97c0.711,0.255,1.08,1.04,0.823,1.752
														C395.503,237.003,395.09,237.327,394.621,237.408z"/>
												</g>
											</g>
										</g>
									</g>
								</g>
							</g>
						</g>
					</g>
					<g>
						<g>
							<g>
								<g>
									<g>
										<g>
											<path style="fill:#3A222B;" d="M350.751,354.562c-4.153,0.717-8.016,0.828-11.659,0.524
												c0.045,4.117-0.203,7.637-1.319,9.591c-0.029,0.052,31.956,3.907,42.177-29.291l-0.011-0.049
												C373.928,344.784,364.736,352.146,350.751,354.562z"/>
										</g>
									</g>
								</g>
							</g>
						</g>
					</g>
					<g>
						<g>
							<g>
								<g>
									<g>
										<g>
											<path style="fill:#3A222B;" d="M395.879,265.065c-0.446-0.272-3.725-2.231-9.208-4.669
												c0.009,0.023,0.015,0.048,0.024,0.072c-0.012-0.027-0.038-0.055-0.049-0.083c-10.717-4.761-29.807-11.286-52.534-10.442
												c0.322,0.917,10.148,27.81,56.095,29.93c0.47-0.118,0.942-0.227,1.434-0.227c2.177,0,4.149,1.253,5.714,3.26
												C397.781,275.752,397.117,269.916,395.879,265.065z"/>
										</g>
									</g>
								</g>
							</g>
						</g>
					</g>
				</g>
			</g>
		</g>
		<g>
			<g>
				<g>
					<g>
						<g>
							<g>
								<g>
									<circle style="fill:#55B798;" cx="856.655" cy="347.023" r="193.479"/>
								</g>
							</g>
						</g>
					</g>
				</g>
			</g>
			<g>
				<path style="fill:#E3F7F1;" d="M808.161,373.153c-0.231,0-0.5,0.046-0.781,0.188l-57.116,28.741
					c-0.865,0.435-1.215,1.493-0.779,2.358l50.797,100.94c0.284,0.566,0.759,0.794,1.018,0.879c0.256,0.086,0.771,0.187,1.341-0.098
					l57.113-28.742c0.565-0.285,0.792-0.759,0.876-1.017c0.085-0.257,0.187-0.774-0.1-1.339L809.734,374.12
					c-0.284-0.565-0.759-0.793-1.018-0.877C808.586,373.199,808.392,373.153,808.161,373.153z"/>
				<g>
					<path style="fill:#F0A76E;" d="M929.022,287.468c0-32.217-26.117-58.335-58.335-58.335c-20.864,0-41.161,10.701-51.472,27.17
						c-3.937,5.326-9.79,20.109-13.8,35.357c0,0-13.05,4.073-15.399,8.061c-2.349,3.988,7.013,11.129,7.013,11.129
						s-2.178,30.351,6.021,35.71c1.822,1.191,4.171,2.278,6.724,3.248c8.275,3.145,17.072,4.602,25.904,4.576l13.571,34.812
						l44.516-17.354l-10.687-27.414C909.334,338.739,929.022,315.426,929.022,287.468z"/>
					<g>
						<g>
							<g>
								<g>
									<g>
										<g>
											<g>
												<g>
													<path style="fill:#3A222B;" d="M821.854,293.235c-1.181,2.568-3.767,3.9-5.776,2.976
														c-2.009-0.924-2.68-3.755-1.499-6.323c1.181-2.568,3.767-3.899,5.776-2.975
														C822.365,287.837,823.036,290.668,821.854,293.235z"/>
												</g>
											</g>
										</g>
									</g>
								</g>
							</g>
						</g>
					</g>
					<g>
						<g>
							<g>
								<g>
									<g>
										<g>
											<g>
												<g>
													<path style="fill:#3A222B;" d="M829.608,285.267c-0.262-0.078-0.496-0.258-0.649-0.526
														c-0.174-0.306-4.358-7.444-11.476-5.918c-0.661,0.14-1.269-0.326-1.357-1.046c-0.088-0.72,0.377-1.417,1.038-1.558
														c8.699-1.861,13.658,6.652,13.866,7.016c0.342,0.603,0.157,1.427-0.414,1.843
														C830.3,285.308,829.932,285.364,829.608,285.267z"/>
												</g>
											</g>
										</g>
									</g>
								</g>
							</g>
						</g>
					</g>
					<g>
						<g>
							<g>
								<g>
									<g>
										<g>
											<path style="fill:#FFFFFF;" d="M810.674,320.176c-4.411-1.154-10.422-2.484-13.885-3.232
												c-0.073,4.201,0.007,9.974,0.68,15.367C806.36,331.182,810.674,320.176,810.674,320.176z"/>
										</g>
									</g>
								</g>
							</g>
						</g>
					</g>
				</g>
				<g id="XMLID_35_">
					<g>
						<g>
							<g>
								<g>
									<g>
										<g>
											<g>
												<path style="fill:#3A222B;" d="M801.859,513.998c-0.993,0-1.989-0.159-2.96-0.479c-2.387-0.789-4.321-2.459-5.448-4.703
													l-50.796-100.938c-2.33-4.631-0.459-10.295,4.171-12.626l57.116-28.741c2.243-1.129,4.796-1.312,7.174-0.529
													c2.387,0.789,4.321,2.458,5.448,4.702l50.797,100.939c1.13,2.241,1.319,4.79,0.53,7.176
													c-0.787,2.385-2.457,4.32-4.702,5.448l-57.113,28.742C804.746,513.659,803.307,513.998,801.859,513.998z
													 M808.161,373.153c-0.231,0-0.5,0.046-0.781,0.188l-57.116,28.741c-0.865,0.435-1.215,1.493-0.779,2.358l50.797,100.94
													c0.284,0.566,0.759,0.794,1.018,0.879c0.256,0.086,0.771,0.187,1.341-0.098l57.113-28.742
													c0.565-0.285,0.792-0.759,0.876-1.017c0.085-0.257,0.187-0.774-0.1-1.339L809.734,374.12
													c-0.284-0.565-0.759-0.793-1.018-0.877C808.586,373.199,808.392,373.153,808.161,373.153z"/>
											</g>
										</g>
									</g>
								</g>
							</g>
						</g>
					</g>
				</g>
				<g>
					<g>
						<g>
							<g>
								<g>
									<g>
										<path style="fill:#F9EDB5;" d="M939.398,509.897h31.889c-0.077-1.313-0.234-2.092-0.234-2.092
											c-1.105-26.536-13.104-74.067-18.429-92.423c-3.729-12.854-63.365-54.482-63.365-54.482l-47.402,17.401l-5.177,14.694
											c-16.12,7.704-32.293,34.536-36.24,47.033l-0.031-0.013l-0.197,0.814c-0.324,1.112-0.598,2.232-0.813,3.36l-15.551,64.22
											l32.881,16.408c-0.083,0.466-0.111,0.934-0.213,1.4v35.098h125.054L939.398,509.897z"/>
									</g>
								</g>
							</g>
						</g>
					</g>
				</g>
				<g id="XMLID_32_">
					<g>
						<g>
							<g>
								<g>
									<g>
										<g>
											<path style="fill:#3A222B;" d="M967.428,351.653c-0.009-18.222-17.787-18.25-27.369-43.421
												c-9.582-25.171,7.531-68.734-37.773-84.871c-38.925-13.866-75.741-2.405-84.811,18.792l-0.001-0.001
												c-5.323,8.237-4.798,27.266-4.798,27.266c1.091-2.923,3.975-7.366,6.913-11.491c6.047,5.254,16.85,16.507,19.48,31.761
												c3.701,21.467-18.518,35.904-15.949,56.735c2.569,20.831,35.677,31.074,20.849,52.111
												c-22.497,31.916,57.075,36.991,72.766,30.481c15.69-6.51,36.073-21.222,33.325-42.053
												C947.31,366.13,967.437,369.191,967.428,351.653z"/>
										</g>
									</g>
								</g>
							</g>
						</g>
					</g>
				</g>
				<g>
					<g>
						<g>
							<g>
								<g>
									<g>
										<g>
											<path style="fill:#CDAB5D;" d="M939.55,279.719c13.395-22.972,2.844-54.351-23.778-70.342
												c-26.621-15.99-59.28-10.566-73.267,12.051l-55.143-5.76c-5.201-0.544-8.848,4.955-6.373,9.561
												c7.672,14.275,28.115,41.499,81.188,73.377c53.073,31.879,86.709,37.139,102.914,37.206
												c5.23,0.022,8.37-5.781,5.447-10.117L939.55,279.719z"/>
										</g>
									</g>
								</g>
							</g>
						</g>
					</g>
					<g>
						<g>
							<g>
								<g>
									<g>
										<g>
											<path style="fill:#3A222B;" d="M881.979,258.932c-5.62-3.994-8.293-3.825-7.58-2.984
												c20.248,23.854,63.256,25.703,65.077,25.768c0.023,0.003,0.05,0.003,0.073,0.003c0.413,0,0.779-0.154,1.098-0.37
												l-1.098-1.629c0.337-0.579,0.593-1.185,0.9-1.774c-0.251-0.128-0.527-0.214-0.828-0.225
												c-0.307-0.013-22.429-0.958-41.943-9.86C890.052,264.382,889.003,263.924,881.979,258.932z"/>
										</g>
									</g>
								</g>
							</g>
						</g>
					</g>
				</g>
				<path style="fill:#F0A76E;" d="M971.287,509.897h-31.889l1.583,37.521c7.828-5.242,16.141-11.17,21.161-15.805
					C970.956,523.476,971.526,514.009,971.287,509.897z"/>
				<path style="fill:#F0A76E;" d="M816.727,524.815l-32.881-16.408l3.675-15.175l-13.299-22.626l-18.968-37.861
					c0,0,0,0-4.859,12.147c-4.859,12.147,9.718,31.635,9.718,31.635s9.718,72.83,37.32,79.361
					c8.223,1.945,14.425-1.988,19.081-8.469v-21.204C816.616,525.75,816.644,525.282,816.727,524.815z"/>
			</g>
		</g>
		<g>
			<g>
				<g>
					<g>
						<g>
							<g>
								<g>
									
										<ellipse transform="matrix(0.7071 -0.7071 0.7071 0.7071 -483.5165 497.0191)" style="fill:#E3F7F1;" cx="358.197" cy="832.166" rx="193.479" ry="193.479"/>
								</g>
							</g>
						</g>
					</g>
				</g>
			</g>
			<g>
				<g>
					<g>
						<g>
							<g>
								<g>
									<g>
										<path style="fill:#2F7346;" d="M332.81,842.317l-18.521,8.849c-11.05,5.279-18.73,15.731-20.468,27.853l-20.224,141.08
											h182.611V884.982c0-0.373-0.006-0.746-0.018-1.118c-0.448-14.05-11.147-25.663-25.043-27.784l-64.117-9.785
											L332.81,842.317z"/>
									</g>
								</g>
							</g>
						</g>
					</g>
				</g>
				<g>
					<path style="fill:#F0A76E;" d="M437.199,750.794c0-31.323-25.393-56.716-56.715-56.716c-20.285,0-40.019,10.404-50.043,26.415
						c-3.828,5.178-9.519,19.55-13.417,34.375c0,0-12.688,3.96-14.972,7.837c-2.284,3.877,6.818,10.82,6.818,10.82
						s-2.117,29.508,5.854,34.718c1.771,1.158,4.056,2.215,6.537,3.158c8.046,3.058,16.598,4.474,25.185,4.449l17.343,44.486
						l35.243-39.021l-6.137-15.22C418.24,800.431,437.199,777.848,437.199,750.794z"/>
					<g>
						<g>
							<g>
								<g>
									<g>
										<g>
											<path style="fill:#F0A76E;" d="M231.621,939.394c-0.209-1.833,1.224-3.44,3.069-3.44l0,0
												c3.772,0,7.324,1.776,9.587,4.793l6.524,8.698c0.093,0.125,0.177,0.256,0.251,0.393l8.951,16.677
												c0.32,0.596,0.436,1.281,0.328,1.949l-2.235,13.97c-0.24,1.499-1.533,2.601-3.05,2.601h-18.514
												c-1.081,0-2.083-0.565-2.643-1.489l-12.321-20.349c-0.196-0.324-0.331-0.681-0.398-1.053l-1.062-5.909
												c-0.259-1.443,0.531-2.87,1.893-3.415l0,0c1.292-0.517,2.77-0.106,3.61,1.003l1.092,1.441l-0.51-5.384
												c-0.04-1.687,0.171-2.252,1.237-2.652l1.219-0.512c1.071-0.434,2.298-0.177,3.105,0.651L231.621,939.394z"/>
										</g>
									</g>
								</g>
							</g>
						</g>
					</g>
					<g>
						<path style="fill:#3A222B;" d="M442.554,740.903c-8.617-55.492-65.487-54.775-80.308-48.929
							c-14.821,5.845-39.422,18.567-36.944,38.746c0,0,1.954-5.186,10.832-14.39c0,0,5.777,29.743,31.282,45.253
							c1.107,0.673,2.178,1.469,3.218,2.368c2.644-3.947,6.369-6.165,9.922-5.407c5.423,1.156,8.388,8.805,6.623,17.086
							c-0.632,2.964-1.785,5.603-3.253,7.722c6.708,14.142,10.792,29.847,12.753,33.263
							C396.679,816.615,451.17,796.394,442.554,740.903z"/>
						<g>
							<g>
								<g>
									<g>
										<g>
											<g>
												<g>
													<g>
														<path style="fill:#3A222B;" d="M333.518,754.309c-1.148,2.496-3.663,3.791-5.616,2.893
															c-1.953-0.898-2.606-3.65-1.458-6.146c1.149-2.496,3.663-3.792,5.616-2.893
															C334.014,749.061,334.666,751.813,333.518,754.309z"/>
													</g>
												</g>
											</g>
										</g>
									</g>
								</g>
							</g>
						</g>
						<g>
							<g>
								<g>
									<g>
										<g>
											<g>
												<g>
													<g>
														<path style="fill:#3A222B;" d="M341.056,746.562c-0.254-0.077-0.482-0.251-0.631-0.512
															c-0.169-0.298-4.237-7.237-11.158-5.754c-0.643,0.136-1.234-0.317-1.319-1.017c-0.085-0.7,0.366-1.378,1.01-1.515
															c8.458-1.809,13.279,6.467,13.481,6.821c0.333,0.587,0.153,1.387-0.403,1.793
															C341.729,746.602,341.372,746.657,341.056,746.562z"/>
													</g>
												</g>
											</g>
										</g>
									</g>
								</g>
							</g>
						</g>
						<g>
							<g>
								<g>
									<g>
										<g>
											<g>
												<g>
													<path style="fill:#3A222B;" d="M320.233,790.066c-7.849,0-10.953-4.565-11.116-4.817
														c-0.394-0.602-0.226-1.409,0.376-1.802c0.589-0.388,1.398-0.23,1.797,0.37c0.188,0.278,4.469,6.277,16.645,2.264
														c0.684-0.234,1.418,0.146,1.642,0.828c0.226,0.683-0.145,1.419-0.829,1.643
														C325.439,789.645,322.618,790.066,320.233,790.066z"/>
												</g>
											</g>
										</g>
									</g>
								</g>
							</g>
						</g>
					</g>
					<g>
						<g>
							<g>
								<g>
									<g>
										<g>
											<g>
												<path style="fill:#3A222B;" d="M314.289,851.166c-11.05,5.279-18.73,15.731-20.468,27.853l-20.224,141.08h18.105
													C294.227,995.304,314.289,851.166,314.289,851.166z"/>
											</g>
										</g>
									</g>
								</g>
							</g>
						</g>
						<g>
							<g>
								<g>
									<g>
										<g>
											<g>
												<path style="fill:#3A222B;" d="M307.409,1023.945h-71.716c-2.379,0-4.672-0.896-6.42-2.51l-78.568-72.546
													c-1.733-1.6-0.601-4.495,1.757-4.495h73.348c2.912,0,5.718,1.097,7.857,3.073l76.151,70.314
													C312.195,1019.975,310.643,1023.945,307.409,1023.945z"/>
											</g>
										</g>
									</g>
								</g>
							</g>
						</g>
						<path style="fill:#F0A76E;" d="M351.623,1001.434l-41.262,5.288c-3.158-5.433-10.269-16.494-17.586-19.868
							c-9.827-4.532-18.245-7.427-19.886-12.509c-1.345-4.168-6.564,0.443-4.817,6.322c0.383,1.291,7.213,9.963,7.213,9.963
							l-35.386-7.69c-1.891-0.411-3.773,0.732-4.28,2.601c-0.475,1.752,0.416,3.587,2.087,4.297l23.259,9.873l-0.035,1.084
							l-26.854-7.116c-1.178-0.312-2.391,0.37-2.736,1.539l-0.082,0.28c-0.309,1.048,0.181,2.166,1.161,2.649l9.499,4.686
							l-6.645-2.024c-1.161-0.354-2.393,0.279-2.783,1.428l-0.051,0.152c-0.348,1.027,0.087,2.156,1.034,2.685l14.104,7.872
							l-6.018-2.102c-1.085-0.379-2.337,0.047-2.849,1.076c-0.553,1.109-0.116,2.416,0.932,2.987l16.433,8.96
							c5.771,3.146,12.232,4.812,18.804,4.847l0,0l76.746,17.741V1001.434z"/>
						<g>
							<g>
								<g>
									<g>
										<g>
											<g>
												<path style="fill:#3A222B;" d="M399.837,878.531v112.932l-48.214,9.972v45.021c0,0,35.774,0,48.214,0
													c1.482,0,2.654,0,3.373,0h26.543c14.61,0,26.455-11.844,26.455-26.454V878.531c0-15.566-12.619-28.185-28.185-28.185h0
													C412.456,850.346,399.837,862.964,399.837,878.531z"/>
											</g>
										</g>
									</g>
								</g>
							</g>
						</g>
						<g>
							<g>
								<g>
									<g>
										<g>
											<g>
												<g>
													<path style="fill:#FFFFFF;" d="M161.387,950.722c0,0.868-0.704,1.572-1.572,1.572c-0.868,0-1.572-0.704-1.572-1.572
														c0-0.868,0.704-1.572,1.572-1.572C160.683,949.149,161.387,949.853,161.387,950.722z"/>
												</g>
											</g>
										</g>
									</g>
								</g>
							</g>
						</g>
					</g>
					<g>
						<g>
							<g>
								<g>
									<g>
										<g>
											<path style="fill:#3A222B;" d="M351.273,828.233L351.273,828.233c4.787-2.512,8.971-6.036,12.26-10.326l13.826-18.03
												c0,0-16.021,13.516-30.915,15.97L351.273,828.233z"/>
										</g>
									</g>
								</g>
							</g>
						</g>
					</g>
					<g>
						<g>
							<g>
								<g>
									<g>
										<g>
											<path style="fill:#FFFFFF;" d="M420.858,823.809c-4.185-5.893-13.487-12.555-24.18-7.195
												c-6.852,3.435-23.415,24.826-34.436,39.758l-10.97-28.139c0,0-18.624,6.238-18.462,14.084
												c0.161,7.846,14.624,39.263,14.624,39.263c1.917,6.121,12.7,7.938,26.458-7.686
												c20.461-23.235,54.131-15.71,61.336-22.728C442.434,844.147,425.044,829.702,420.858,823.809z"/>
										</g>
									</g>
								</g>
							</g>
						</g>
					</g>
					<g>
						<g>
							<g>
								<g>
									<g>
										<g>
											<path style="fill:#CDAB5D;" d="M449.742,748.815c13.024-22.334,2.765-52.842-23.117-68.389
												c-25.882-15.547-57.634-10.273-71.233,11.716l-53.613-5.601c-5.057-0.528-8.603,4.817-6.196,9.296
												c7.459,13.878,27.334,40.346,78.934,71.34c51.6,30.994,84.302,36.108,100.057,36.173c5.085,0.021,8.137-5.62,5.296-9.836
												L449.742,748.815z"/>
										</g>
									</g>
								</g>
							</g>
						</g>
					</g>
					<g>
						<g>
							<g>
								<g>
									<g>
										<g>
											<path style="fill:#3A222B;" d="M393.77,728.604c-5.464-3.883-8.063-3.719-7.369-2.901
												c19.686,23.191,61.5,24.99,63.27,25.053c0.023,0.003,0.048,0.003,0.071,0.003c0.402,0,0.757-0.15,1.068-0.36
												l-1.068-1.584c0.328-0.563,0.576-1.152,0.875-1.725c-0.244-0.124-0.513-0.208-0.805-0.218
												c-0.298-0.013-21.806-0.932-40.779-9.586C401.619,733.903,400.599,733.457,393.77,728.604z"/>
										</g>
									</g>
								</g>
							</g>
						</g>
					</g>
				</g>
			</g>
		</g>
		<g>
			<g>
				<g>
					<g>
						<g>
							<g>
								<g>
									
										<ellipse transform="matrix(0.7071 -0.7071 0.7071 0.7071 -337.5216 849.482)" style="fill:#F9EDB5;" cx="856.655" cy="832.166" rx="193.479" ry="193.479"/>
								</g>
							</g>
						</g>
					</g>
				</g>
			</g>
			<g>
				<path style="fill:#CDAB5D;" d="M929.77,732.487c0.08-2.812-0.063-5.668-0.451-8.554c-4.312-32.102-36.783-55.682-72.526-52.666
					c-19.629,1.656-36.161,10.99-46.365,24.385c-28.786-0.529-49.915,6.702-54.285,20.893
					c-7.152,23.222,33.281,56.283,90.308,73.846c57.027,17.562,109.054,12.974,116.206-10.248
					C967.012,766,953.716,748.206,929.77,732.487z"/>
				<g>
					<g>
						<g>
							<g>
								<g>
									<g>
										<g>
											<path style="fill:#3A222B;" d="M920.003,727.89c-0.229,0-0.459-0.055-0.672-0.178
												c-13.893-7.891-30.278-14.846-47.383-20.115c-18.359-5.651-36.981-9.203-53.855-10.269
												c-0.749-0.048-1.32-0.693-1.273-1.443c0.045-0.746,0.633-1.347,1.443-1.273c17.086,1.078,35.926,4.671,54.487,10.386
												c17.288,5.324,33.862,12.363,47.925,20.349c0.653,0.369,0.882,1.201,0.51,1.855
												C920.936,727.643,920.476,727.89,920.003,727.89z"/>
										</g>
									</g>
								</g>
							</g>
						</g>
					</g>
				</g>
				<path style="fill:#55B798;" d="M989.789,945.049l-10.958-51.743c-2.243-10.591-8.337-20.226-17.339-27.413
					c-5.895-4.706-18.711-8.22-26.269-10.302l-37.186-10.241h-33.639h-33.639l-37.186,10.241
					c-7.558,2.082-14.522,5.596-20.417,10.302c-9.002,7.187-15.096,16.822-17.339,27.413l-10.958,51.743h39.721v93.146H962.34
					v-93.146H989.789z"/>
				<g>
					<g>
						<g>
							<g>
								<g>
									<g>
										<path style="fill:#3A222B;" d="M873.632,992.817h-79.177c-1.401,0-2.727-0.632-3.61-1.72L724.051,908.8
											c-1.257-1.549-0.276-3.875,1.712-4.055l78.093-7.056c2.795-0.253,5.52,0.966,7.195,3.218l64.914,87.269
											C877.391,990.093,876.022,992.817,873.632,992.817z"/>
									</g>
								</g>
							</g>
						</g>
					</g>
				</g>
				<g>
					<g>
						<g>
							<g>
								<g>
									<g>
										<path style="fill:#FFFFFF;" d="M737.014,911.503c0,1.119-0.908,2.027-2.028,2.027c-1.12,0-2.027-0.908-2.027-2.027
											c0-1.12,0.908-2.027,2.027-2.027C736.106,909.475,737.014,910.383,737.014,911.503z"/>
									</g>
								</g>
							</g>
						</g>
					</g>
				</g>
				<g>
					<path style="fill:#F0A76E;" d="M764.65,974.918c-0.344,1.147-0.132,2.394,0.599,3.341l19.331,25.052v-19.934l-17.374-21.407
						C767.044,964.96,766.378,969.147,764.65,974.918z"/>
					<g>
						<g>
							<g>
								<g>
									<g>
										<g>
											<g>
												<path style="fill:#F0A76E;" d="M723.761,933.498c0.772-1.158,6.668-8.432,8.343-10.494
													c0.295-0.364,0.652-0.661,1.061-0.889l16.719-9.309c1.464-0.815,3.293-0.539,4.451,0.672l0,0
													c1.568,1.639,1.295,4.292-0.573,5.578l-11.417,7.86c-0.372,0.257-0.694,0.579-0.95,0.952l-5.245,7.658l30.617-14.384
													c1.683-0.79,3.69-0.203,4.681,1.371l0.086,0.136c1.102,1.749,0.547,4.063-1.228,5.123l-25.822,15.413l33.223-14.548
													c1.729-0.757,3.751-0.084,4.681,1.559l0.056,0.099c0.951,1.679,0.443,3.807-1.162,4.878l-9.317,6.211l11.618-4.26
													c1.12-0.411,2.376-0.019,3.064,0.955l0,0c0.847,1.199,0.552,2.859-0.656,3.693l-17.42,12.032
													c-1.217,0.841-1.785,2.307-1.54,3.766c0.438,2.607,0.466,7.836-2.382,17.349c-0.344,1.147-0.132,2.394,0.599,3.341
													l20.978,27.187c1.909,2.474,4.104,9.176,5.603,15.872c2.202,9.835-1.981,21.305-11.526,24.538
													c-5.311,1.799-13.272-1.025-13.272-1.025c-6.921-1.758-14.636-12.355-16.805-19.158c0,0-4.73-37.619-5.703-50.128l0,0
													c0.119-0.961-0.146-1.93-0.736-2.697l-16.62-21.606c-0.318-0.414-0.542-0.881-0.663-1.389
													C725.754,946.679,722.98,934.67,723.761,933.498z"/>
											</g>
										</g>
									</g>
								</g>
							</g>
						</g>
					</g>
					<path style="fill:#3A222B;" d="M764.65,974.918c-0.344,1.147-0.132,2.394,0.599,3.341l19.331,25.052v-5.459l-16.895-20.198
						c-1.077-1.245-0.677-3.401-0.15-4.961c1.111-3.289,1.657-6.406,1.887-7.992l-2.217-2.731
						C767.044,964.96,766.378,969.147,764.65,974.918z"/>
				</g>
				<path style="fill:#F0A76E;" d="M909.579,768.656c-0.476-0.082-0.954-0.102-1.43-0.067c0.69-6.883,0.66-11.429,0.66-11.429
					c0-2.784-0.325-5.495-0.857-8.142c-12.794-8.551-39.402-22.616-72.679-19.566c-9.236,0.846-15.557,1.495-20.067,2.446
					c-5.009,7.242-7.872,15.898-7.872,25.221c0,0-0.153,4.645,0.375,11.656c-4.576,1.235-7.216,7.932-5.936,15.348
					c1.302,7.542,6.176,13.021,10.98,12.442c4.238,13.688,11.754,27.277,25.057,33.988c-2.808,8.056-7.052,14.797-7.052,14.797
					l33.639,56.466l33.639-56.466c0,0-8.065-12.806-9.311-24.216c6.534-7.156,10.943-16.298,13.917-25.421
					c0.654,0.403,1.365,0.681,2.124,0.812c4.897,0.846,9.945-4.707,11.274-12.404C917.369,776.426,914.477,769.502,909.579,768.656z
					"/>
				<g>
					<g>
						<g>
							<g>
								<g>
									<g>
										<path style="fill:#3A222B;" d="M839.227,771.849c0,2.867-1.818,5.191-4.062,5.191c-2.243,0-4.061-2.324-4.061-5.191
											c0-2.867,1.818-5.191,4.061-5.191C837.408,766.658,839.227,768.982,839.227,771.849z"/>
									</g>
								</g>
							</g>
						</g>
					</g>
				</g>
				<g>
					<g>
						<g>
							<g>
								<g>
									<g>
										<path style="fill:#3A222B;" d="M879.272,771.849c0,2.867-1.818,5.191-4.062,5.191c-2.243,0-4.062-2.324-4.062-5.191
											c0-2.867,1.819-5.191,4.062-5.191C877.453,766.658,879.272,768.982,879.272,771.849z"/>
									</g>
								</g>
							</g>
						</g>
					</g>
				</g>
				<g>
					<g>
						<g>
							<g>
								<g>
									<g>
										<path style="fill:#FFFFFF;" d="M873.928,800.894c0,0-6.024,13.996-23.017,12.626c-11.18-0.901-15.47-12.626-15.47-12.626
											H873.928z"/>
									</g>
								</g>
							</g>
						</g>
					</g>
				</g>
				<path style="fill:#3A222B;" d="M905.355,787.213c-0.324,0-0.647-0.116-0.903-0.343c-0.464-0.413-0.588-1.088-0.303-1.639
					l5.404-10.448c0.344-0.666,1.165-0.923,1.829-0.583c0.666,0.345,0.927,1.163,0.583,1.829l-2.956,5.717l2.38-1.609
					c0.624-0.422,1.466-0.257,1.885,0.364c0.421,0.621,0.257,1.465-0.364,1.885l-6.794,4.592
					C905.884,787.136,905.62,787.213,905.355,787.213z"/>
				<path style="fill:#3A222B;" d="M853.771,790.092c-0.051,0-0.103-0.002-0.154-0.009c-2.994-0.338-4.87-1.388-5.575-3.116
					c-1.061-2.605,1.119-5.389,1.371-5.7c0.475-0.578,1.325-0.664,1.905-0.195c0.581,0.471,0.671,1.326,0.202,1.908
					c-0.471,0.585-1.326,2.08-0.962,2.964c0.295,0.715,1.49,1.227,3.363,1.439c0.745,0.083,1.282,0.756,1.197,1.501
					C855.04,789.58,854.452,790.092,853.771,790.092z"/>
				<path style="fill:#3A222B;" d="M823.404,762.085c-0.433,0-0.857-0.206-1.12-0.589c-0.425-0.619-0.268-1.463,0.35-1.889
					c0.374-0.255,9.203-6.194,17.563-0.944c0.635,0.398,0.827,1.238,0.428,1.872c-0.399,0.636-1.238,0.829-1.872,0.428
					c-6.864-4.307-14.505,0.829-14.582,0.885C823.937,762.007,823.669,762.085,823.404,762.085z"/>
				<path style="fill:#3A222B;" d="M883.212,762.498c-0.311,0-0.623-0.105-0.878-0.321c-0.289-0.244-7.171-5.957-14.412-2.403
					c-0.676,0.328-1.489,0.054-1.817-0.621c-0.331-0.673-0.052-1.487,0.62-1.816c8.861-4.354,17.025,2.48,17.37,2.774
					c0.57,0.486,0.637,1.341,0.152,1.911C883.979,762.337,883.597,762.498,883.212,762.498z"/>
				<g>
					<path style="fill:#F0A76E;" d="M985.662,945.049h-47.474v29.008l-58.771-20.135l-5.195-7.42l0,0l-10.436-16.316l-0.436-0.787
						c-1.065-1.924-3.447-2.682-5.427-1.727l-6.193,3.187c-0.197-0.406-0.445-0.796-0.802-1.13l-6.785-6.376
						c-1.028-0.966-2.504-1.291-3.842-0.844l-2.415,0.805c-0.539,0.179-1.03,0.476-1.441,0.868l-7.287,6.977
						c-2.287,2.189-2.017,5.918,0.56,7.755c1.856,1.323,4.369,1.238,6.131-0.208l2.061-1.691l25.264,33.964l5.581,1.714
						l78.138,60.164c5.534,4.262,12.565,6.087,19.473,5.057l1.753-0.261c9.608-1.433,17.587-8.158,20.625-17.385v0
						c0.487-1.48,0.828-2.992,1.039-4.516l0.007,0l-0.001-0.029C990.241,1012.415,985.662,945.049,985.662,945.049z"/>
					<g>
						<g>
							<g>
								<g>
									<g>
										<g>
											<path style="fill:#3A222B;" d="M840.717,938.228c0.082,1.103,0.431,2.193,1.058,3.165c1.741,2.7,5.185,3.837,8.312,2.652
												l7.619-3.311c0,0,8.739,9.583,9.618,9.583l-8.613-12.98l-9.706,4.217c-1.828,0.69-3.89,0.009-4.948-1.633
												c-1.092-1.694-0.765-3.838,0.581-5.174c-1.378-0.802-3.11-0.698-4.355,0.323l-2.373,1.946l1.623,2.182L840.717,938.228z"
												/>
										</g>
									</g>
								</g>
							</g>
						</g>
					</g>
					<g>
						<g>
							<g>
								<g>
									<g>
										<g>
											<polygon style="fill:#3A222B;" points="938.187,974.057 971.548,985.486 938.187,967.3 											"/>
										</g>
									</g>
								</g>
							</g>
						</g>
					</g>
				</g>
				<g>
					<g>
						<g>
							<g>
								<g>
									<g>
										<g>
											<polygon style="fill:#2F7346;" points="822.148,847.722 802.826,892.205 835.442,880.755 864.398,901.816 
												864.398,901.816 830.758,845.35 											"/>
										</g>
									</g>
								</g>
							</g>
						</g>
					</g>
				</g>
				<g>
					<g>
						<g>
							<g>
								<g>
									<g>
										<g>
											<polygon style="fill:#2F7346;" points="906.646,847.722 925.969,892.205 893.353,880.755 864.398,901.816 
												864.398,901.816 898.036,845.35 											"/>
										</g>
									</g>
								</g>
							</g>
						</g>
					</g>
				</g>
				<g>
					<g>
						<g>
							<g>
								<g>
									<g>
										<path style="fill:#3A222B;" d="M802.32,743.721c-1.296,6.231-1.519,15.623,0.565,29.772
											c1.096-2.37,2.75-4.094,4.832-4.661c-0.532-7.038-0.382-11.714-0.382-11.714c0-9.305,2.854-17.944,7.844-25.178
											l-0.097-0.016c-4.05,0.866-6.63,1.984-8.493,3.736C804.077,738.023,802.876,741.435,802.32,743.721z"/>
									</g>
								</g>
							</g>
						</g>
					</g>
				</g>
				<g>
					<g>
						<g>
							<g>
								<g>
									<g>
										<path style="fill:#3A222B;" d="M907.975,749.033c0.54,2.637,0.834,5.35,0.834,8.127c0,0,0.026,4.575-0.667,11.476
											c0.479-0.036,0.958-0.063,1.438,0.02c2.125,0.367,3.838,1.923,5.027,4.145c1.623-6.91,1.958-12.718,1.567-17.66
											C915.785,754.8,912.914,752.336,907.975,749.033z"/>
									</g>
								</g>
							</g>
						</g>
					</g>
				</g>
				<path style="fill:#3A222B;" d="M837.813,830.554c-1.726,4.95-3.994,9.402-5.486,12.098l0.001,0.001
					c0,0,17.227,14.001,41.179-10.808c-4.805,1.926-10.255,3.028-16.457,3.028C849.569,834.874,843.215,833.279,837.813,830.554z"/>
			</g>
		</g>
	</g>
</g>
</svg>
