<?xml version="1.0" encoding="utf-8"?>
<!-- Generator: Adobe Illustrator 27.5.0, SVG Export Plug-In . SVG Version: 6.00 Build 0)  -->
<svg version="1.1" xmlns="http://www.w3.org/2000/svg" xmlns:xlink="http://www.w3.org/1999/xlink" x="0px" y="0px"
	 viewBox="0 0 500 500" style="enable-background:new 0 0 500 500;" xml:space="preserve">
<g id="BACKGROUND">
	<rect style="fill:#FFFFFF;" width="500" height="500"/>
</g>
<g id="OBJECTS">
	<g>
		<path style="fill:#FFDEF2;" d="M427.025,217.637c0,94.596-76.686,103.043-171.282,103.043
			c-94.596,0-171.282-8.446-171.282-103.043c0-94.597,76.686-171.282,171.282-171.282
			C350.339,46.354,427.025,123.04,427.025,217.637z"/>
		<g>
			<path style="fill:#E096C9;" d="M315.634,115.631H189.997c-8.814,0-13.803-10.288-8.185-17.08
				c3.383-4.091,8.288-5.762,15.207,0.226c0,0,3.73-12.416,17.683-12.159c11.304,0.208,16.066,9.882,16.066,9.882
				s13.276-20.977,37.539-20.344c17.821,0.465,36.859,24.139,36.859,24.139s12.705-9.048,18.907-1.406
				C329.505,105.582,324.253,115.631,315.634,115.631z"/>
			<path style="fill:#E096C9;" d="M404.778,209.758c-3.438-6.878-11.77,1.721-11.77,1.721s-6.002-12.224-16.332-15.25
				c-19.47-5.704-27.923,12.399-27.923,12.399s-3.427-4.257-10.151-4.413c-3.125-0.073-5.303,2.305-6.805,5.299
				c-2.525,5.031,0.325,11.604,5.041,11.604h62.784C404.237,221.117,407.242,214.688,404.778,209.758z"/>
			<g>
				<path style="fill:#E096C9;" d="M82.306,251.202c-0.468,0-0.898-0.303-1.041-0.771c-0.806-2.645-2.057-4.269-3.718-4.826
					c-2.929-0.981-6.392,1.501-6.427,1.526c-0.486,0.355-1.168,0.246-1.522-0.238c-0.354-0.485-0.25-1.166,0.236-1.521
					c0.177-0.13,4.397-3.171,8.394-1.837c1.224,0.407,2.274,1.163,3.145,2.261c0.264-0.916,0.719-1.837,1.474-2.622
					c1.795-1.864,4.731-2.427,8.734-1.67c0.591,0.112,0.98,0.682,0.868,1.274c-0.112,0.591-0.679,0.985-1.273,0.868
					c-3.227-0.608-5.499-0.263-6.751,1.033c-1.779,1.84-1.061,5.161-1.053,5.194c0.128,0.572-0.218,1.144-0.785,1.293
					C82.492,251.19,82.398,251.202,82.306,251.202z"/>
				<path style="fill:#E096C9;" d="M92.45,234.115c-0.468,0-0.899-0.304-1.042-0.772c-0.806-2.645-2.057-4.269-3.719-4.826
					c-2.924-0.981-6.391,1.501-6.426,1.526c-0.485,0.355-1.168,0.247-1.522-0.238c-0.354-0.485-0.25-1.165,0.236-1.521
					c0.177-0.13,4.39-3.168,8.394-1.838c1.223,0.407,2.274,1.163,3.145,2.261c0.264-0.916,0.718-1.837,1.474-2.622
					c1.794-1.865,4.733-2.428,8.733-1.671c0.592,0.112,0.98,0.682,0.868,1.273c-0.112,0.591-0.684,0.986-1.273,0.868
					c-3.234-0.611-5.506-0.261-6.758,1.04c-1.757,1.828-1.054,5.151-1.047,5.184c0.131,0.573-0.214,1.146-0.781,1.298
					C92.638,234.104,92.544,234.115,92.45,234.115z"/>
				<path style="fill:#E096C9;" d="M110.039,246.116c-0.468,0-0.898-0.303-1.041-0.771c-0.806-2.645-2.057-4.269-3.719-4.826
					c-2.927-0.981-6.391,1.501-6.426,1.526c-0.485,0.355-1.168,0.247-1.522-0.239c-0.354-0.485-0.25-1.165,0.236-1.521
					c0.177-0.13,4.393-3.169,8.394-1.838c1.223,0.407,2.273,1.164,3.144,2.261c0.264-0.916,0.719-1.837,1.474-2.622
					c1.794-1.865,4.732-2.429,8.733-1.671c0.592,0.112,0.98,0.682,0.869,1.273c-0.112,0.591-0.685,0.984-1.273,0.868
					c-3.226-0.608-5.499-0.262-6.751,1.034c-1.779,1.84-1.061,5.16-1.053,5.194c0.128,0.572-0.218,1.144-0.785,1.293
					C110.225,246.105,110.131,246.116,110.039,246.116z"/>
			</g>
			<g>
				<path style="fill:#E096C9;" d="M377.28,132.66c-0.126,0.018-0.257,0.015-0.388-0.013c-0.572-0.124-0.945-0.677-0.844-1.254
					c0.545-3.075,0.111-5.356-1.288-6.778c-2.456-2.498-7.176-1.773-7.259-1.766c-0.591,0.143-1.152-0.309-1.248-0.903
					c-0.096-0.594,0.306-1.153,0.9-1.249c0.236-0.036,5.9-0.916,9.153,2.381c1.044,1.058,1.708,2.4,1.992,4.013
					c0.737-0.837,1.69-1.586,2.904-2.008c2.684-0.931,5.843-0.011,9.398,2.734c0.477,0.368,0.565,1.053,0.197,1.529
					c-0.368,0.477-1.052,0.566-1.529,0.196c-2.932-2.264-5.404-3.072-7.342-2.404c-2.76,0.951-3.739,4.673-3.748,4.71
					C378.066,132.288,377.703,132.598,377.28,132.66z"/>
				<path style="fill:#E096C9;" d="M407.382,141.624c-0.126,0.018-0.257,0.015-0.388-0.013c-0.572-0.124-0.945-0.677-0.844-1.254
					c0.545-3.075,0.111-5.356-1.288-6.779c-2.456-2.498-7.179-1.772-7.259-1.766c-0.614,0.088-1.152-0.31-1.248-0.903
					c-0.096-0.594,0.306-1.153,0.9-1.249c0.237-0.035,5.899-0.917,9.153,2.381c1.044,1.058,1.708,2.4,1.992,4.013
					c0.738-0.837,1.691-1.587,2.904-2.008c2.678-0.932,5.842-0.01,9.398,2.735c0.477,0.368,0.564,1.053,0.197,1.529
					c-0.368,0.476-1.052,0.565-1.529,0.197c-2.932-2.264-5.406-3.073-7.342-2.404c-2.76,0.951-3.739,4.674-3.748,4.711
					C408.168,141.251,407.805,141.561,407.382,141.624z"/>
				<path style="fill:#E096C9;" d="M420.762,159.224c-0.126,0.018-0.257,0.015-0.388-0.013c-0.572-0.124-0.945-0.677-0.844-1.254
					c0.545-3.075,0.111-5.356-1.288-6.778c-2.456-2.498-7.172-1.786-7.259-1.766c-0.004,0.001-0.008,0.001-0.013,0.002
					c-0.589,0.087-1.141-0.315-1.236-0.904c-0.096-0.594,0.306-1.152,0.9-1.249c0.232-0.04,5.9-0.916,9.153,2.382
					c1.044,1.058,1.708,2.4,1.992,4.014c0.738-0.838,1.69-1.588,2.904-2.009c2.677-0.933,5.843-0.011,9.399,2.735
					c0.477,0.368,0.565,1.053,0.197,1.529c-0.368,0.476-1.052,0.566-1.529,0.197c-2.929-2.263-5.395-3.073-7.343-2.404
					c-2.76,0.951-3.738,4.674-3.748,4.711C421.549,158.852,421.186,159.162,420.762,159.224z"/>
				<path style="fill:#E096C9;" d="M354.513,138.248c-0.126,0.019-0.257,0.015-0.388-0.013c-0.572-0.124-0.945-0.677-0.844-1.254
					c0.545-3.075,0.111-5.355-1.288-6.778c-2.456-2.498-7.188-1.771-7.259-1.766c-0.558,0.09-1.152-0.31-1.248-0.903
					c-0.096-0.594,0.306-1.152,0.9-1.249c0.231-0.044,5.9-0.916,9.153,2.381c1.044,1.058,1.708,2.4,1.992,4.014
					c0.738-0.838,1.69-1.588,2.905-2.009c2.679-0.93,5.843-0.011,9.399,2.735c0.477,0.368,0.564,1.053,0.197,1.529
					c-0.368,0.477-1.052,0.565-1.529,0.197c-2.929-2.263-5.394-3.076-7.343-2.404c-2.76,0.951-3.738,4.674-3.748,4.711
					C355.299,137.876,354.936,138.186,354.513,138.248z"/>
			</g>
		</g>
		<g>
			<path style="fill:#FFF5FB;" d="M150.669,175.625c-0.048,1.5,1.129,2.755,2.629,2.803c1.5,0.048,2.755-1.129,2.802-2.629
				c0.048-1.5-1.129-2.755-2.629-2.803C151.972,172.948,150.717,174.125,150.669,175.625z"/>
			<path style="fill:#FFF5FB;" d="M175.16,197.746c-0.048,1.5,1.129,2.755,2.629,2.803c1.5,0.048,2.754-1.129,2.802-2.629
				c0.048-1.5-1.129-2.755-2.629-2.803C176.462,195.069,175.208,196.246,175.16,197.746z"/>
			<path style="fill:#FFF5FB;" d="M179.093,135.447c-0.074,2.311,1.739,4.244,4.05,4.317c2.31,0.074,4.243-1.739,4.317-4.05
				c0.074-2.311-1.739-4.243-4.05-4.317C181.1,131.324,179.167,133.137,179.093,135.447z"/>
			<path style="fill:#FFF5FB;" d="M388.904,243.182c-0.074,2.311,1.739,4.243,4.05,4.317c2.311,0.074,4.243-1.739,4.317-4.05
				c0.074-2.311-1.739-4.243-4.05-4.317C390.911,239.058,388.978,240.871,388.904,243.182z"/>
			<path style="fill:#FFF5FB;" d="M308.042,76.009c-0.074,2.311,1.739,4.243,4.05,4.317c2.311,0.074,4.243-1.739,4.317-4.05
				c0.074-2.311-1.739-4.243-4.05-4.317C310.048,71.885,308.115,73.698,308.042,76.009z"/>
			<path style="fill:none;stroke:#FFFFFF;stroke-linecap:round;stroke-linejoin:round;stroke-miterlimit:10;" d="M335.266,169.321
				c-0.089,2.774,2.088,5.095,4.862,5.183c2.774,0.089,5.095-2.088,5.183-4.862c0.089-2.774-2.088-5.095-4.862-5.183
				C337.675,164.37,335.354,166.547,335.266,169.321z"/>
			<path style="fill:none;stroke:#FFFFFF;stroke-linecap:round;stroke-linejoin:round;stroke-miterlimit:10;" d="M139.624,286.104
				c-0.057,1.765,1.329,3.242,3.094,3.298c1.765,0.056,3.242-1.329,3.299-3.094c0.057-1.765-1.329-3.242-3.094-3.299
				C141.157,282.953,139.68,284.338,139.624,286.104z"/>
		</g>
		<circle style="fill:#FFFFFF;" cx="29.929" cy="455.727" r="1.506"/>
		<g>
			<path style="fill:#6E89EA;" d="M445.699,373.793c-15.501-7.069-87.805-13.148-196.119-13.148s-196.118,5.886-196.118,13.148
				c0,0,0,4.659,24.259,5.018c16.414,0.243,5.864,5.57-5.863,5.863c-11.727,0.293-16.125,7.183,4.104,9.089
				c20.229,1.906,42.218-2.346,39.579,4.398c-2.639,6.743-25.8,2.932-31.663,8.942c-5.864,6.01,38.407,6.01,56.877,6.597
				c18.47,0.586,64.116,1.044,46.587,7.684c-17.528,6.64-16.993,9.821,18.06,10.358c113.832,1.744,131.26-2.611,114.2-11.155
				c-28.436-14.241-1.556-14.472,20.235-14.239c66.495,0.71,73.278-3.78,61.592-10.154c-11.686-6.374-10.508-13.566,17.515-13.22
				C434.346,383.164,461.908,381.185,445.699,373.793z"/>
			<path style="fill:none;stroke:#4F2649;stroke-linecap:round;stroke-linejoin:round;stroke-miterlimit:10;" d="M386.056,389.701
				c0,0,0.69,3.967,5.841,6.619c7.124,3.667-11.404,5.461-32.507,4.72"/>
			<path style="fill:none;stroke:#4F2649;stroke-linecap:round;stroke-linejoin:round;stroke-miterlimit:10;" d="M201.014,421.02
				c0,0,61.239,0.935,93.199,0"/>
			<path style="fill:none;stroke:#4F2649;stroke-linecap:round;stroke-linejoin:round;stroke-miterlimit:10;" d="M92.613,378.54
				c0,0,6.066,2.525,2.887,4.453c-3.179,1.927-13.387,2.363-9.176,5.384c4.212,3.02,15.081,0.462,22.576,1.567"/>
			<path style="fill:none;stroke:#4F2649;stroke-linecap:round;stroke-linejoin:round;stroke-miterlimit:10;" d="M145.84,392.111
				c0,0,12.055-1.096,25.48,5.48c13.425,6.575,32.603-5.206,43.837,0c11.233,5.206,47.946-2.138,47.946-2.138"/>
			<path style="fill:none;stroke:#4F2649;stroke-linecap:round;stroke-linejoin:round;stroke-miterlimit:10;" d="M307.742,366.837
				c0,0,23.08,2.689,24.872,9.635c1.792,6.946,22.631,12.865-13.444,18.981"/>
			<path style="fill:none;stroke:#FFFFFF;stroke-linecap:round;stroke-linejoin:round;stroke-miterlimit:10;" d="M396.975,370.896
				c0,0,9.575,1.368,19.15,2.052c9.575,0.684,15.047,3.078,15.047,3.078"/>
			<path style="fill:none;stroke:#FFFFFF;stroke-linecap:round;stroke-linejoin:round;stroke-miterlimit:10;" d="M148.57,409.633
				c0,0-46.022,0.858-53.883-3.144"/>
			<path style="fill:none;stroke:#FFFFFF;stroke-linecap:round;stroke-linejoin:round;stroke-miterlimit:10;" d="M64.53,373.902
				c0,0,0.858-3.292,28.299-3.668"/>
			<path style="fill:#FFFFFF;" d="M127.512,398.076c0,0.481-0.39,0.871-0.87,0.871c-0.481,0-0.87-0.39-0.87-0.871
				c0-0.481,0.39-0.87,0.87-0.87C127.122,397.206,127.512,397.595,127.512,398.076z"/>
			<path style="fill:#FFFFFF;" d="M173.976,372.068c0,0.481-0.39,0.87-0.87,0.87c-0.481,0-0.871-0.39-0.871-0.87
				s0.39-0.871,0.871-0.871C173.586,371.198,173.976,371.587,173.976,372.068z"/>
			<path style="fill:none;stroke:#FFFFFF;stroke-miterlimit:10;" d="M137.709,379.41c0,1.038-0.842,1.88-1.88,1.88
				c-1.038,0-1.88-0.841-1.88-1.88c0-1.038,0.842-1.879,1.88-1.879C136.868,377.531,137.709,378.372,137.709,379.41z"/>
			<path style="fill:none;stroke:#FFFFFF;stroke-miterlimit:10;" d="M349.826,370.896c0,1.038-0.841,1.879-1.88,1.879
				c-1.038,0-1.879-0.841-1.879-1.879c0-1.038,0.841-1.88,1.879-1.88C348.985,369.016,349.826,369.858,349.826,370.896z"/>
			<circle style="fill:none;stroke:#FFFFFF;stroke-miterlimit:10;" cx="259.762" cy="410.581" r="1.88"/>
			<path style="fill:none;stroke:#FFFFFF;stroke-miterlimit:10;" d="M378.3,392.042c0,1.038-0.842,1.88-1.88,1.88
				c-1.038,0-1.879-0.842-1.879-1.88c0-1.038,0.841-1.879,1.879-1.879C377.458,390.163,378.3,391.004,378.3,392.042z"/>
			<path style="fill:#FFFFFF;" d="M227.514,413.231c0,0.481-0.39,0.871-0.871,0.871c-0.481,0-0.87-0.39-0.87-0.871
				s0.39-0.871,0.87-0.871C227.125,412.361,227.514,412.75,227.514,413.231z"/>
			<path style="fill:#FFFFFF;" d="M366.435,380.732c0,0.481-0.39,0.871-0.871,0.871c-0.481,0-0.87-0.39-0.87-0.871
				c0-0.481,0.39-0.871,0.87-0.871C366.045,379.861,366.435,380.251,366.435,380.732z"/>
			<circle style="fill:#FFFFFF;" cx="288.759" cy="409.711" r="0.871"/>
			<path style="fill:#FFFFFF;" d="M314.649,378.54c0,0.481-0.39,0.87-0.871,0.87c-0.481,0-0.87-0.39-0.87-0.87
				c0-0.481,0.39-0.871,0.87-0.871C314.26,377.669,314.649,378.059,314.649,378.54z"/>
			<path style="fill:#FFFFFF;" d="M116.071,373.902c0,0.481-0.39,0.871-0.871,0.871c-0.481,0-0.871-0.39-0.871-0.871
				s0.39-0.871,0.871-0.871C115.682,373.031,116.071,373.421,116.071,373.902z"/>
		</g>
	</g>
	<g>
		<g>
			<path style="fill:#E88874;" d="M290.801,211.564c-3.733,14.01-17.107,19.176-29.953,15.083l-12.091-5.462l4.569,23.329
				c0,0-2.595,53.184-18.583,53.613c-21.796,0.585-26.952-58.057-26.952-58.057l5.626-46.597c0,0-12.476,0.584-8.168-17.342
				c3.923-16.326,12.727-6.293,12.727-6.293l2.914-10.282c2.321-10.087,11.754-20.559,28.571-18.492l22.579,2.533
				C272.039,143.596,307.779,147.857,290.801,211.564z"/>
			<path style="fill:#4F2649;" d="M247.707,175.406c1.033-1.242,2.242-2.09,3.661-2.828c1.402-0.727,2.978-1.204,4.595-1.508
				c1.623-0.228,3.297-0.319,4.917-0.141c0.822,0.056,1.596,0.248,2.397,0.373c0.771,0.197,1.53,0.415,2.279,0.657
				c1.24,0.401,1.875,1.598,1.418,2.673c-0.431,1.014-1.68,1.558-2.861,1.28l-0.189-0.045c-1.245-0.297-2.46-0.631-3.692-0.797
				c-1.229-0.215-2.458-0.267-3.692-0.237c-1.236,0.024-2.454,0.244-3.663,0.557c-1.186,0.308-2.431,0.835-3.413,1.377l-0.176,0.097
				c-0.545,0.301-1.27,0.16-1.619-0.315C247.404,176.187,247.436,175.734,247.707,175.406z"/>
			<g>
				<path style="fill:none;stroke:#4F2649;stroke-linecap:round;stroke-linejoin:round;stroke-miterlimit:10;" d="M283.808,193.701
					c0,0,1.847,2.064,0.637,4.083c-1.21,2.019-2.378,0.758-4.412,1.77"/>
				<path style="fill:none;stroke:#4F2649;stroke-linecap:round;stroke-linejoin:round;stroke-miterlimit:10;" d="M275.503,197.08
					c0,0-0.467-0.658-1.127-0.652c-0.659,0.006-1.094,1.043-1.094,1.043"/>
				<path style="fill:none;stroke:#4F2649;stroke-linecap:round;stroke-linejoin:round;stroke-miterlimit:10;" d="M272.08,192.353
					c0,0-3.348,1.499-1.424,5.48"/>
			</g>
			<path style="fill:none;stroke:#4F2649;stroke-linecap:round;stroke-linejoin:round;stroke-miterlimit:10;" d="M216.025,178.725
				c0,0,1.687,2.816-0.85,3.339c-5.408,1.115,0.676,4.14-1.321,5.556"/>
			<path style="fill:none;stroke:#4F2649;stroke-linecap:round;stroke-linejoin:round;stroke-miterlimit:10;" d="M214.627,172.355
				c0,0-4.549-3.077-5.85,7.148"/>
			<g>
				<defs>
					<path id="SVGID_1_" d="M295.178,175.708c0,0,0.314,3.618,0.182,6.956l-14.41-0.911l0.631-6.419
						C281.581,175.335,290.365,172.667,295.178,175.708z"/>
				</defs>
				<clipPath id="SVGID_00000183936540252874953140000012096438795022240653_">
					<use xlink:href="#SVGID_1_"  style="overflow:visible;"/>
				</clipPath>
				<path style="clip-path:url(#SVGID_00000183936540252874953140000012096438795022240653_);fill:#4F2649;" d="M301.281,182.477
					c-0.606-1.416-1.449-2.483-2.496-3.484c-1.035-0.988-2.274-1.765-3.587-2.383c-1.335-0.545-2.743-0.966-4.165-1.114
					c-0.714-0.109-1.418-0.075-2.129-0.113c-0.702,0.039-1.398,0.101-2.091,0.188c-1.148,0.145-1.956,1.185-1.804,2.324
					c0.143,1.074,1.087,1.852,2.157,1.816l0.171-0.006c1.129-0.042,2.239-0.126,3.328-0.043c1.097,0.034,2.157,0.228,3.204,0.502
					c1.05,0.269,2.04,0.726,3.002,1.271c0.943,0.535,1.89,1.298,2.607,2.02l0.129,0.13c0.398,0.402,1.049,0.408,1.452,0.015
					C301.366,183.298,301.439,182.85,301.281,182.477z"/>
			</g>
			<path style="fill:#4F2649;" d="M281.447,208.306c-9.55,1.592-17.012-4.522-17.012-4.522s-1.578,9.398,6.598,11.218
				C279.018,216.78,281.447,208.306,281.447,208.306z"/>
			<g>
				<path style="fill:#FFFFFF;" d="M249.792,184.872c0,0,12.097-10.501,20.626,3.041c0,0-3.905,5.632-10.854,5.38
					C252.614,193.04,249.792,184.872,249.792,184.872z"/>
				<g>
					<g>
						<defs>
							<path id="SVGID_00000090985550694664193340000017238876504441736833_" d="M249.792,184.872c0,0,12.097-10.501,20.626,3.041
								c0,0-3.905,5.632-10.854,5.38C252.614,193.04,249.792,184.872,249.792,184.872z"/>
						</defs>
						<clipPath id="SVGID_00000153689235198282646040000016783829435136852395_">
							<use xlink:href="#SVGID_00000090985550694664193340000017238876504441736833_"  style="overflow:visible;"/>
						</clipPath>
						<path style="clip-path:url(#SVGID_00000153689235198282646040000016783829435136852395_);fill:#4F2649;" d="M270.935,188.139
							c-0.287,3.657-3.484,6.389-7.141,6.102c-3.657-0.287-6.389-3.484-6.103-7.141c0.287-3.657,3.484-6.389,7.142-6.103
							C268.49,181.285,271.222,184.482,270.935,188.139z"/>
					</g>
				</g>
			</g>
			<g>
				<defs>
					<path id="SVGID_00000078750476150982153110000003974556111854770869_" d="M295.36,182.664c0,0-0.235,7.305-1.458,14.919
						c0,0-10.23-3.461-11.819-9.442C282.083,188.141,287.41,182.213,295.36,182.664z"/>
				</defs>
				<clipPath id="SVGID_00000020383386645724717630000004216110595491710897_">
					<use xlink:href="#SVGID_00000078750476150982153110000003974556111854770869_"  style="overflow:visible;"/>
				</clipPath>
				<g style="clip-path:url(#SVGID_00000020383386645724717630000004216110595491710897_);">
					<path style="fill:#FFFFFF;" d="M304.151,189.206c0,0-10.311-12.259-20.848-0.213c0,0,2.979,6.172,9.883,7.006
						C300.09,196.834,304.151,189.206,304.151,189.206z"/>
					<g>
						<g>
							<defs>
								<path id="SVGID_00000135686019771979738460000013448020608824762557_" d="M304.151,189.206c0,0-10.311-12.259-20.848-0.213
									c0,0,2.979,6.172,9.883,7.006C300.09,196.834,304.151,189.206,304.151,189.206z"/>
							</defs>
							<clipPath id="SVGID_00000018937519506225147100000001430983862504431233_">
								<use xlink:href="#SVGID_00000135686019771979738460000013448020608824762557_"  style="overflow:visible;"/>
							</clipPath>
							<path style="clip-path:url(#SVGID_00000018937519506225147100000001430983862504431233_);fill:#4F2649;" d="M288.77,189.592
								c-0.287,3.657,2.446,6.854,6.103,7.141c3.657,0.287,6.854-2.445,7.141-6.103c0.287-3.657-2.445-6.855-6.102-7.142
								C292.255,183.203,289.057,185.935,288.77,189.592z"/>
						</g>
					</g>
				</g>
			</g>
			<path style="fill:#FF5C5E;" d="M265.278,210.49c0,0,6.475-1.007,11.266,3.98C276.544,214.47,269.225,218.156,265.278,210.49z"/>
			<path style="fill:#4F2649;" d="M250.943,222.172c0,0-18.722-22.379-11.617-46.46c7.105-24.082,43.119-23.28,54.53-8.628
				c0,0-0.813-29.344-44.063-35.722c-31.074-4.582-35.777,31.362-35.777,31.362s-7.702-1.054-9.672,14.783
				c-2.138,17.191,9.072,15.968,9.072,15.968l-0.818,6.771C212.599,200.244,223.081,216.333,250.943,222.172z"/>
			<path style="fill:#6E89EA;" d="M292.626,160.961c1.159,3.657,1.229,6.122,1.229,6.122c-11.411-14.652-47.425-15.453-54.53,8.628
				c-7.105,24.082,11.617,46.46,11.617,46.46c-2.293-0.481-4.469-1.031-6.531-1.636c0,0-16.849-15.981-10.05-47.548
				C241.161,141.422,280.473,147.801,292.626,160.961z"/>
			<path style="fill:none;stroke:#4F2649;stroke-linecap:round;stroke-linejoin:round;stroke-miterlimit:10;" d="M228.253,223.078
				c0,0,0.794,12.461,9.425,10.497"/>
			<path style="fill:#6E89EA;" d="M214.015,162.723c0,0,9.433,4.745,6.691,17.745c-2.741,13-7.291,13.005-7.291,13.005
				s-11.817,0.968-9.072-15.968C207.088,160.57,212.1,162.399,214.015,162.723z"/>
		</g>
		<g>
			<path style="fill:#E88874;" d="M279.428,241.507c19.309,3.83,42.367,7.584,62.095,16.264
				c19.729,8.681,65.299,33.505,65.299,33.505s-3.157,14.994-18.94,15.783c0,0-31.65,4.804-56.903-12.706
				c0,0-84.621,1.43-102.68-37.239C228.299,257.114,212.357,228.203,279.428,241.507z"/>
			<g>
				<path style="fill:#E88874;" d="M394.386,308.046c0,0,3.895,22.196,12.338,27.597c9.313,5.958,6.377-4.165,4.9-8.286
					c-0.212-0.592,0.411-1.138,0.969-0.847c7.826,4.099,16.726,12.458,16.726,12.458s6.214,7.335,10.083,3.12
					c4.062-4.424-9.485-12.051-10.419-13.274l0,0c0,0,14.519,15.059,18.272,8.831c2.723-4.52-11.292-15.333-13.669-16.892l0,0
					c10.435,16.925,14.166,8.615,14.166,8.615c1.418-3.881-2.744-8.772-4.664-9.634l0,0c0.4-0.093,2.378,4.761,4.369,0.206
					c2.382-5.449-11.8-16.417-17.216-20.601c-10.712-8.276-22.85-8.457-22.85-8.457l-8.27-3.449l-10.698,17.854L394.386,308.046z"/>
				<path style="fill:none;stroke:#4F2649;stroke-linecap:round;stroke-linejoin:round;stroke-miterlimit:10;" d="M438.708,336.92
					c0,0-6.221-7.009-19.605-16.612"/>
				<path style="fill:none;stroke:#4F2649;stroke-linecap:round;stroke-linejoin:round;stroke-miterlimit:10;" d="M444.879,331.217
					c0,0-6.221-7.009-19.605-16.612"/>
				<path style="fill:none;stroke:#4F2649;stroke-linecap:round;stroke-linejoin:round;stroke-miterlimit:10;" d="M445.795,321.992
					c0,0-3.818-5.256-17.202-14.86"/>
			</g>
			<path style="fill:none;stroke:#4F2649;stroke-linecap:round;stroke-linejoin:round;stroke-miterlimit:10;" d="M328.405,288.998
				c0,0,2.136,5.378,5.887,7.499"/>
			<path style="fill:none;stroke:#4F2649;stroke-linecap:round;stroke-linejoin:round;stroke-miterlimit:10;" d="M304.132,246.824
				c0,0,12.794,0.65,21.035,13.228"/>
		</g>
		<g>
			<path style="fill:#E88874;" d="M179.545,266.861c0,0-6.484,36.113,6.106,59.483c12.591,23.371,10.38,59.487,10.38,59.487
				s15.931-7.011,32.29,0c16.36,7.011,28.462-7.946,45.08-4.674c0,0,3.222-35.648,4.229-57.149c0,0,9.091-28.755,6.217-57.146
				c-2.873-28.391-45.146-32.577-70.181-32.598C188.631,234.243,180.835,255.611,179.545,266.861z"/>
			<path style="fill:none;stroke:#4F2649;stroke-linecap:round;stroke-linejoin:round;stroke-miterlimit:10;" d="M285.359,275.475
				c0,0-0.38,13.304-1.9,21.461"/>
			<path style="fill:none;stroke:#4F2649;stroke-linecap:round;stroke-linejoin:round;stroke-miterlimit:10;" d="M213.493,239.828
				c0,0,14.35-1.765,20.036,1.604c5.686,3.369,6.572-1.925,19.193,0"/>
			<path style="fill:none;stroke:#4F2649;stroke-linecap:round;stroke-linejoin:round;stroke-miterlimit:10;" d="M238.811,275.475
				c0,0-3.533,24.634,5.717,29.395c9.25,4.761,32.732,3.575,32.732,3.575"/>
			<path style="fill:none;stroke:#4F2649;stroke-linecap:round;stroke-linejoin:round;stroke-miterlimit:10;" d="M235.278,277.373
				c0,0-0.743,23.565-4.981,27.497c-5.523,5.124-26.59,3.423-39.861,1.869"/>
			<path style="fill:none;stroke:#4F2649;stroke-linecap:round;stroke-linejoin:round;stroke-miterlimit:10;" d="M235.754,322.082
				c0,0,8.748,11.505,2.592,22.384c0,0,5.151,13.191-2.592,23.322"/>
			<path style="fill:none;stroke:#4F2649;stroke-linecap:round;stroke-linejoin:round;stroke-miterlimit:10;" d="M193.57,330.412
				c0,0,7.292,1.671,14.887,0"/>
			<path style="fill:none;stroke:#4F2649;stroke-linecap:round;stroke-linejoin:round;stroke-miterlimit:10;" d="M196.031,345.057
				c0,0,4.882,1.119,9.967,0"/>
			<path style="fill:none;stroke:#4F2649;stroke-linecap:round;stroke-linejoin:round;stroke-miterlimit:10;" d="M267.436,330.412
				c0,0,4.483,0.884,8.533,0.732"/>
			<path style="fill:none;stroke:#4F2649;stroke-linecap:round;stroke-linejoin:round;stroke-miterlimit:10;" d="M269.896,345.057
				c0,0,2.492,0.445,4.983,0.494"/>
			<path style="fill:none;stroke:#4F2649;stroke-linecap:round;stroke-linejoin:round;stroke-miterlimit:10;" d="M241.737,317.068
				c0,0,14.388,3.604,18.025,13.344"/>
			<path style="fill:none;stroke:#4F2649;stroke-linecap:round;stroke-linejoin:round;stroke-miterlimit:10;" d="M231.142,317.068
				c0,0-9.96,1.011-18.972,6.672"/>
			<path style="fill:none;stroke:#4F2649;stroke-linecap:round;stroke-linejoin:round;stroke-miterlimit:10;" d="M219.066,345.305
				c0,0,23.623-3.823,35.289,1.427"/>
			<path style="fill:#B55757;" d="M202.531,301.609c0,1.348-1.984,2.442-4.431,2.442c-2.447,0-4.431-1.093-4.431-2.442
				s1.984-2.441,4.431-2.441C200.547,299.168,202.531,300.261,202.531,301.609z"/>
			<path style="fill:#B55757;" d="M276.819,302.429c0,1.348-1.984,2.442-4.431,2.442s-4.431-1.093-4.431-2.442
				c0-1.348,1.984-2.441,4.431-2.441S276.819,301.08,276.819,302.429z"/>
			<path style="fill:none;stroke:#4F2649;stroke-linecap:round;stroke-linejoin:round;stroke-miterlimit:10;" d="M188.268,386.585
				c0,0,0.714,1.349,7.763-0.754c7.048-2.103,19.127-5.398,30.425-0.738c11.298,4.659,17.578,2.014,21.11,0.851
				c3.532-1.163,15.428-6.784,25.836-4.787c10.408,1.997,12.123,1.073,12.123,1.073"/>
		</g>
		<g>
			<path style="fill:#E88874;" d="M208.549,233.785c0,0-7.016-1.954-24.493-1.554c0,0-20.068-7.837-45.644-11.924
				c0,0-0.239-24.609-4.222-38.586c-3.983-13.977-2.738-55.826-2.738-55.826s-8.216-3.129-22.047,4.199
				c0,0-14.546,70.417-0.561,105.11c0,0,14.922,34.755,68.883,43.171c0,0,18.396,0.231,26.345-15.811
				C206.984,256.689,217.153,235.26,208.549,233.785z"/>
			<path style="fill:#E88874;" d="M107.092,143.664c0,0-4.419-9.682-6.654-21.472c-0.807-4.256-13.127-19.143-8.349-21.602
				c5.286-2.721,8.083,4.823,15.698,16.538c0.514,0.79,1.344,0.324,1.006-0.556c-4.413-11.475-11.836-26.188-6.114-28.231
				c6.984-2.493,10.294,13.257,12.956,26.494c0.144,0.718,1.202,0.602,1.185-0.131c-0.297-13.04-3.222-31.183,4.415-30.297
				c6.344,0.736,3.961,19.31,2.589,30.89c-0.09,0.758,1.004,0.968,1.206,0.232c2.721-9.907,5.5-25.142,10.831-23.852
				c7.421,1.796-0.213,17.004-3.476,24.314c0,0-1.597,6.006,4.607,3.243c0,0,2.439-1.366,4.005-3.581
				c2.811-3.975,5.799-5.156,6.841,1.164c0.909,5.514-7.539,19.917-20.153,22.924L107.092,143.664z"/>
			<path style="fill:none;stroke:#4F2649;stroke-linecap:round;stroke-linejoin:round;stroke-miterlimit:10;" d="M137.264,243.251
				c0,0,11.417,13.015,37.676,16.44"/>
			<path style="fill:none;stroke:#4F2649;stroke-linecap:round;stroke-linejoin:round;stroke-miterlimit:10;" d="M173.106,277.574
				c0,0,9.206,1.937,20.342,0.484"/>
			<path style="fill:none;stroke:#4F2649;stroke-linecap:round;stroke-linejoin:round;stroke-miterlimit:10;" d="M133.385,220.988
				c0,0,7.465-1.521,15.202,1.184"/>
		</g>
	</g>
	<g>
		<path style="fill:#6E89EA;" d="M138.223,119.489c-13.177,13.494-34.798,13.752-48.292,0.575
			c-13.494-13.177-13.752-34.798-0.575-48.292c13.177-13.494,34.798-13.752,48.292-0.575
			C151.142,84.373,151.4,105.994,138.223,119.489z"/>
		<path style="fill:none;stroke:#4F2649;stroke-linecap:round;stroke-linejoin:round;stroke-miterlimit:10;" d="M124.558,63.914
			c0,0-14.247,12.394-10.791,31.733c0,0,22.04,7.378,22.129,24.562"/>
		<path style="fill:none;stroke:#4F2649;stroke-linecap:round;stroke-linejoin:round;stroke-miterlimit:10;" d="M80.907,102.229
			c0,0,19.215,10.869,32.86-6.583"/>
		<path style="fill:none;stroke:#4F2649;stroke-linecap:round;stroke-linejoin:round;stroke-miterlimit:10;" d="M108.53,62.546
			c0,0-17.542,16.402-3.903,40.723"/>
		<path style="fill:none;stroke:#4F2649;stroke-linecap:round;stroke-linejoin:round;stroke-miterlimit:10;" d="M88.361,73.792
			c0,0-5.007,14.797,2.824,31.584"/>
		<path style="fill:none;stroke:#4F2649;stroke-linecap:round;stroke-linejoin:round;stroke-miterlimit:10;" d="M124.857,101.527
			c0,0-7.412,16.629-37.69,14.504"/>
		<path style="fill:none;stroke:#4F2649;stroke-linecap:round;stroke-linejoin:round;stroke-miterlimit:10;" d="M133.898,111.724
			c0,0-8.375,12.384-29.668,16.054"/>
		<path style="fill:none;stroke:#4F2649;stroke-linecap:round;stroke-linejoin:round;stroke-miterlimit:10;" d="M113.52,85.247
			c0,0,18.839,1.501,30.944,23.856"/>
		<path style="fill:none;stroke:#4F2649;stroke-linecap:round;stroke-linejoin:round;stroke-miterlimit:10;" d="M117.771,72.7
			c0,0,18.811,4.67,29.387,20.119"/>
	</g>
</g>
</svg>
